<?xml version="1.0" encoding="UTF-8" standalone="no"?><!DOCTYPE svg PUBLIC "-//W3C//DTD SVG 1.1//EN" "http://www.w3.org/Graphics/SVG/1.1/DTD/svg11.dtd"><svg width="100%" height="100%" viewBox="0 0 1850 434" version="1.1" xmlns="http://www.w3.org/2000/svg" xmlns:xlink="http://www.w3.org/1999/xlink" xml:space="preserve" xmlns:serif="http://www.serif.com/" style="fill-rule:evenodd;clip-rule:evenodd;stroke-linejoin:round;stroke-miterlimit:2;"><g id="logo-whale"><g id="グループ_1"><circle id="楕円形_1" cx="758.775" cy="205.467" r="6.842" style="fill:#cdd3d8;"/><path id="パス_1" d="M1453.967,347.183l-3.617,-2.875c-5.45,-14.721 -12.917,-24.9 0.963,-37.971c2.524,-0.921 4.948,-2.096 7.233,-3.508c7.7,-5.333 38.417,-12.208 9.2,-18.9c-23.333,-5.338 -51.225,8.95 -69.058,16.713c-21.151,-11.694 -43.158,-21.766 -65.833,-30.129c-29.292,-11.467 -58.904,-22.171 -88.333,-33.304c-6.933,-2.621 -34.425,-6.579 -27.158,-10.346c50.833,-26.317 -11.35,-27.85 -23.458,-25.8c-27.185,5.268 -55.341,2.099 -80.675,-9.079c-136.35,-60.417 -330.417,-47.283 -354.408,-52.083c-41.075,-8.213 -58.75,-8.396 -71.958,-2.392c-33.55,15.242 -110.071,-7.463 -147.833,9.771c-8.739,3.695 -16.901,8.626 -24.237,14.642c-4.508,5.25 -5.417,10.1 4.167,12.762c21.583,5.996 123.521,16.783 159.496,26.379c31.308,8.333 40.775,17.992 49.167,26.388c8.392,8.396 25.179,17.983 40.771,10.788c15.592,-7.196 21.592,-9.583 21.592,-9.583c-20.392,19.167 -34.783,17.983 -45.571,15.583c-10.788,-2.4 -36.321,-28.054 -46.771,-32.375c-34.783,-14.392 -143.908,-27.587 -176.288,-33.583c-9.729,-1.8 -15.171,0.175 -18.088,3.75c-1.167,9.583 2.046,20.929 9.508,35.358c30.25,58.467 79.554,95.792 143.796,111.417c47.083,11.454 95.771,16.35 143.442,25.646c21.35,4.167 40.417,8.729 61.492,12.275c11.625,11.925 23.442,21.354 32.608,25.287c23.679,10.142 68.333,29.529 101.067,18.838c23.425,-7.662 -16.283,-25.958 -38.058,-38.438c12.5,-0.329 26.338,-0.696 28.304,-0.679c46.796,0.342 85.067,-3.167 121.217,-4.2c110.417,-3.167 160.192,-3.6 223.333,-16.129c22.683,-4.5 38.5,-8.571 50,-10.021c12.083,12.304 25.7,35.658 37.221,43.4c16.325,10.971 66.738,-4.658 84.167,-13.033c17.429,-8.375 -28.413,-9.433 -47.396,-24.567Zm-691.775,-124.621c-8.44,-0.002 -15.383,-6.948 -15.383,-15.387c0,-8.441 6.946,-15.387 15.387,-15.387c8.44,0 15.385,6.944 15.387,15.383c0,0.003 0,0.006 0,0.008c0,8.439 -6.944,15.383 -15.383,15.383c-0.003,0 -0.006,-0 -0.008,-0Zm161.667,111.25c13.104,-0.079 25.912,-0.417 38.25,-1.058c-6.379,5.258 -17.833,6.625 -35.113,7.779c-1.192,-2.3 -2.217,-4.558 -3.133,-6.721l-0.004,0Zm-2.833,-7.292c-1.112,-3.142 -1.975,-5.833 -2.708,-7.975c9.8,-0.222 19.588,-0.689 29.363,-1.4c-7.947,5.331 -17.119,8.559 -26.654,9.379l0,-0.004Zm20.417,-25c-12.762,5.401 -26.575,7.867 -40.417,7.217c-3.537,-0.125 -7.083,-0.3 -10.608,-0.483c-7.328,-1.741 -14.405,-4.408 -21.058,-7.938c23.968,2.063 48.05,2.473 72.075,1.225l0.008,-0.021Zm-124.167,-7.662c0.075,1.096 0.207,2.188 0.396,3.271c0.254,1.279 0.662,2.637 1.033,3.975c-113.917,-16.942 -209.213,-57.838 -213.217,-96.558c27.667,37.854 116.333,73.612 211.763,89.337l0.025,-0.025Zm6.017,19.508c1.111,2.431 2.349,4.894 3.713,7.392c-150.992,-20.708 -256.821,-77.683 -254.5,-123.192c29.817,53.8 132.692,100.483 250.762,115.821l0.025,-0.021Zm8.792,16.096c1.146,1.833 2.346,3.658 3.579,5.487c-217.263,-21.779 -293.183,-94.838 -291.067,-139.917c45.642,83.733 167.983,122.4 287.463,134.45l0.025,-0.021Zm-310.321,-135.7c12.392,49.608 89.458,131.871 319.908,149.642c1.404,1.888 2.842,3.75 4.321,5.6c-256.55,-20.354 -316.871,-96.579 -324.258,-155.221l0.029,-0.021Zm413.242,159.471c-1.633,-2.125 -3.071,-4.267 -4.408,-6.396c16.713,0.062 33.921,-0.096 51.929,-0.646c-15.678,3.337 -31.549,5.689 -47.521,7.042Z" style="fill:#cdd3d8;fill-rule:nonzero;"/></g><circle id="楕円形_9" cx="300" cy="187.5" r="25" style="fill:#fff;"/><circle id="楕円形_13" cx="420.833" cy="125" r="12.5" style="fill:#fff;"/><circle id="楕円形_14" cx="120.833" cy="75" r="20.833" style="fill:#fff;"/><circle id="楕円形_18" cx="12.5" cy="12.5" r="12.5" style="fill:#fff;"/><circle id="楕円形_10" cx="1695.833" cy="416.667" r="16.667" style="fill:#fff;"/><circle id="楕円形_15" cx="1733.333" cy="312.5" r="20.833" style="fill:#fff;"/><circle id="楕円形_16" cx="1695.833" cy="204.167" r="16.667" style="fill:#fff;"/><circle id="楕円形_17" cx="1833.333" cy="154.167" r="16.667" style="fill:#fff;"/><circle id="楕円形_11" cx="1431.25" cy="160.417" r="27.083" style="fill:#fff;"/><circle id="楕円形_12" cx="1541.667" cy="58.333" r="16.667" style="fill:#fff;"/></g></svg>